<svg width="72" height="44" viewBox="0 0 72 44" fill="none" xmlns="http://www.w3.org/2000/svg">
<path d="M17.8286 6.47058H19.8857V37.5294H17.8286V6.47058Z" fill="#B1B0B8"/>
<path d="M13.7143 6.47058H15.7714V37.5294H13.7143V6.47058Z" fill="#B1B0B8"/>
<path d="M26.7429 6.47058H28.1143V37.5294H26.7429V6.47058Z" fill="#B1B0B8"/>
<path d="M30.1714 6.47058H32.9142V37.5294H30.1714V6.47058Z" fill="#B1B0B8"/>
<path d="M7.54285 6.47058H10.9714V37.5294H7.54285V6.47058Z" fill="#B1B0B8"/>
<path d="M21.9429 6.47058H25.3714V37.5294H21.9429V6.47058Z" fill="#B1B0B8"/>
<path d="M56.2286 37.5294H53.4857V6.4706H56.2286V37.5294Z" fill="#B1B0B8"/>
<path d="M59.6571 37.5294H58.2857V6.4706H59.6571V37.5294Z" fill="#B1B0B8"/>
<path d="M45.9429 37.5294H44.5714V6.4706H45.9429V37.5294Z" fill="#B1B0B8"/>
<path d="M37.0286 37.5294H35.6571V6.4706H37.0286V37.5294Z" fill="#B1B0B8"/>
<path d="M42.5143 37.5294H39.7714V6.4706H42.5143V37.5294Z" fill="#B1B0B8"/>
<path d="M65.1428 37.5294H62.4V6.4706H65.1428V37.5294Z" fill="#B1B0B8"/>
<path d="M51.4286 37.5294H48V6.4706H51.4286V37.5294Z" fill="#B1B0B8"/>
<path d="M70.6285 20.7059V23.2941H1.3714V20.7059H70.6285Z" fill="#585666"/>
<path fill-rule="evenodd" clip-rule="evenodd" d="M1.37143 0H0V1.29412V7.76471H1.37143V1.29412L8.22857 1.29412V0H1.37143Z" fill="#FF941A"/>
<path fill-rule="evenodd" clip-rule="evenodd" d="M70.6286 44L72 44L72 42.7059L72 36.2353L70.6286 36.2353L70.6286 42.7059L63.7714 42.7059L63.7714 44L70.6286 44Z" fill="#FF941A"/>
<path fill-rule="evenodd" clip-rule="evenodd" d="M72 1.29412L72 0L70.6286 -5.9947e-08L63.7714 -3.59682e-07L63.7714 1.29412L70.6286 1.29412L70.6286 7.76471L72 7.76471L72 1.29412Z" fill="#FF941A"/>
<path fill-rule="evenodd" clip-rule="evenodd" d="M4.30916e-07 42.7059L2.98854e-07 44L1.37143 44L8.22857 44L8.22857 42.7059L1.37143 42.7059L1.37143 36.2353L1.01822e-06 36.2353L4.30916e-07 42.7059Z" fill="#FF941A"/>
</svg>
